<svg xmlns="http://www.w3.org/2000/svg" viewBox="0 0 512 512" width="32" height="32">
  <path fill="#FDBE33" d="M488.5 352c1.7-8.3 2.5-16.9 2.5-25.6 0-82.9-66.4-150.3-149.3-152.4V128c0-8.8-7.2-16-16-16s-16 7.2-16 16v45.9C293.6 174 278.4 172 262.4 172c-12 0-23.6 1.1-34.8 3.2V128c0-8.8-7.2-16-16-16s-16 7.2-16 16v55.5c-75.1 8.8-133.6 72.5-133.6 149.8 0 8.7.8 17.3 2.5 25.6-26.7 8.3-46.5 33.1-46.5 62.4 0 35.3 28.7 64 64 64h24v-48h112v48h128v-48h112v48h24c35.3 0 64-28.7 64-64 0-29.3-19.8-54.1-46.5-62.4z"/>
  <path fill="#030F27" d="M256 192c-13.3 0-24 10.7-24 24s10.7 24 24 24 24-10.7 24-24-10.7-24-24-24z"/>
</svg>
